<svg id="SvgjsSvg1006" width="487" height="379" xmlns="http://www.w3.org/2000/svg" version="1.1" xmlns:xlink="http://www.w3.org/1999/xlink" xmlns:svgjs="http://svgjs.com/svgjs"><defs id="SvgjsDefs1007"></defs><g id="SvgjsG1008" transform="translate(25,25)"><path id="SvgjsPath1009" d="M 0 4Q 0 0 4 0L 433 0Q 437 0 437 4L 437 325Q 437 329 433 329L 4 329Q 0 329 0 325Z" stroke="rgba(50,50,50,1)" stroke-width="2" fill-opacity="1" fill="#ffffff"></path><g id="SvgjsG1010"><text id="SvgjsText1011" font-family="微软雅黑" text-anchor="middle" font-size="13px" width="91" fill="#323232" font-weight="400" align="middle" anchor="middle" family="微软雅黑" size="13px" weight="400" font-style="" opacity="1" y="14.55" transform="rotate(0)"><tspan id="SvgjsTspan1012" dy="16" x="218.5"><tspan id="SvgjsTspan1013" style="text-decoration:;">executor总内存</tspan></tspan></text></g></g><g id="SvgjsG1014" transform="translate(343,79)"><path id="SvgjsPath1015" d="M 0 4Q 0 0 4 0L 115 0Q 119 0 119 4L 119 271Q 119 275 115 275L 4 275Q 0 275 0 271Z" stroke="rgba(50,50,50,1)" stroke-width="2" fill-opacity="1" fill="#ffffff"></path><g id="SvgjsG1016"><text id="SvgjsText1017" font-family="微软雅黑" text-anchor="middle" font-size="13px" width="104" fill="#323232" font-weight="400" align="middle" anchor="middle" family="微软雅黑" size="13px" weight="400" font-style="" opacity="1" y="2.692857142857142" transform="rotate(0)"><tspan id="SvgjsTspan1018" dy="16" x="59.5"><tspan id="SvgjsTspan1019" style="text-decoration:;">reserved memory</tspan></tspan><tspan id="SvgjsTspan1020" dy="16" x="59.5"><tspan id="SvgjsTspan1021" style="text-decoration:;">300M</tspan></tspan></text></g></g><g id="SvgjsG1022" transform="translate(25,79)"><path id="SvgjsPath1023" d="M 0 4Q 0 0 4 0L 314 0Q 318 0 318 4L 318 271Q 318 275 314 275L 4 275Q 0 275 0 271Z" stroke="rgba(50,50,50,1)" stroke-width="2" fill-opacity="1" fill="#ffffff"></path><g id="SvgjsG1024"><text id="SvgjsText1025" font-family="微软雅黑" text-anchor="middle" font-size="13px" width="250" fill="#323232" font-weight="400" align="middle" anchor="middle" family="微软雅黑" size="13px" weight="400" font-style="" opacity="1" y="-5.307142857142858" transform="rotate(0)"><tspan id="SvgjsTspan1026" dy="16" x="159"><tspan id="SvgjsTspan1027" style="text-decoration:;"> </tspan></tspan><tspan id="SvgjsTspan1028" dy="16" x="159"><tspan id="SvgjsTspan1029" style="text-decoration:;">memory 占可用内存比例0.6</tspan></tspan><tspan id="SvgjsTspan1030" dy="16" x="159"><tspan id="SvgjsTspan1031" style="text-decoration:;">可用内存=（运行时最大可用内存）- 300M</tspan></tspan></text></g></g><g id="SvgjsG1032" transform="translate(37,230)"><path id="SvgjsPath1033" d="M 0 4Q 0 0 4 0L 284 0Q 288 0 288 4L 288 66Q 288 70 284 70L 4 70Q 0 70 0 66Z" stroke="rgba(50,50,50,1)" stroke-width="2" fill-opacity="1" fill="#ffffff"></path><g id="SvgjsG1034"><text id="SvgjsText1035" font-family="微软雅黑" text-anchor="middle" font-size="13px" width="84" fill="#323232" font-weight="400" align="middle" anchor="middle" family="微软雅黑" size="13px" weight="400" font-style="" opacity="1" y="-35.95" transform="rotate(0)"><tspan id="SvgjsTspan1036" dy="16" x="144"><tspan id="SvgjsTspan1037" style="text-decoration:;"> </tspan></tspan><tspan id="SvgjsTspan1038" dy="16" x="144"><tspan id="SvgjsTspan1039" style="text-decoration:;"> </tspan></tspan><tspan id="SvgjsTspan1040" dy="16" x="144"><tspan id="SvgjsTspan1041" style="text-decoration:;"> </tspan></tspan><tspan id="SvgjsTspan1042" dy="16" x="144"><tspan id="SvgjsTspan1043" style="text-decoration:;">计算内存</tspan></tspan><tspan id="SvgjsTspan1044" dy="16" x="144"><tspan id="SvgjsTspan1045" style="text-decoration:;">占内存比例0.5</tspan></tspan></text></g></g><g id="SvgjsG1046" transform="translate(37,142)"><path id="SvgjsPath1047" d="M 0 4Q 0 0 4 0L 290 0Q 294 0 294 4L 294 66.5Q 294 70.5 290 70.5L 4 70.5Q 0 70.5 0 66.5Z" stroke="rgba(50,50,50,1)" stroke-width="2" fill-opacity="1" fill="#ffffff"></path><g id="SvgjsG1048"><text id="SvgjsText1049" font-family="微软雅黑" text-anchor="middle" font-size="13px" width="182" fill="#323232" font-weight="400" align="middle" anchor="middle" family="微软雅黑" size="13px" weight="400" font-style="" opacity="1" y="-19.914285714285715" transform="rotate(0)"><tspan id="SvgjsTspan1050" dy="16" x="147"><tspan id="SvgjsTspan1051" style="text-decoration:;"> </tspan></tspan><tspan id="SvgjsTspan1052" dy="16" x="147"><tspan id="SvgjsTspan1053" style="text-decoration:;"> </tspan></tspan><tspan id="SvgjsTspan1054" dy="16" x="147"><tspan id="SvgjsTspan1055" style="text-decoration:;">storage memory占内存比例0.5</tspan></tspan></text></g></g></svg>